<svg xmlns="http://www.w3.org/2000/svg" xmlns:xlink="http://www.w3.org/1999/xlink" width="150" zoomAndPan="magnify" viewBox="0 0 112.5 30.000001" height="40" preserveAspectRatio="xMidYMid meet" version="1.0"><defs><g/><clipPath id="289e2aa839"><path d="M 52.144531 21 L 109 21 L 109 23 L 52.144531 23 Z M 1.574219 21 L 37.179688 21 L 37.179688 23 L 1.574219 23 Z M 1.574219 21 " clip-rule="nonzero"/></clipPath><clipPath id="52e2a6f5aa"><path d="M 95 7 L 110.445312 7 L 110.445312 21 L 95 21 Z M 95 7 " clip-rule="nonzero"/></clipPath></defs><g clip-path="url(#289e2aa839)"><path fill="#d3175b" d="M 1.625 21.171875 L 108.46875 21.171875 L 108.46875 22.910156 L 1.625 22.910156 Z M 1.625 21.171875 " fill-opacity="1" fill-rule="nonzero"/></g><g fill="#d3175b" fill-opacity="1"><g transform="translate(1.62686, 20.015585)"><g><path d="M 5.734375 0.15625 C 5.492188 0.15625 5.238281 0.140625 4.96875 0.109375 C 4.695312 0.078125 4.441406 0.0390625 4.203125 0 L 0.515625 0 L 0.515625 -10.359375 C 0.515625 -11.316406 0.675781 -12.101562 1 -12.71875 C 1.332031 -13.34375 1.757812 -13.832031 2.28125 -14.1875 C 2.8125 -14.539062 3.382812 -14.789062 4 -14.9375 C 4.613281 -15.09375 5.191406 -15.171875 5.734375 -15.171875 C 6.765625 -15.171875 7.734375 -14.96875 8.640625 -14.5625 C 9.546875 -14.164062 10.34375 -13.617188 11.03125 -12.921875 C 11.71875 -12.222656 12.253906 -11.410156 12.640625 -10.484375 C 13.035156 -9.554688 13.234375 -8.5625 13.234375 -7.5 C 13.234375 -6.4375 13.035156 -5.441406 12.640625 -4.515625 C 12.253906 -3.597656 11.71875 -2.789062 11.03125 -2.09375 C 10.34375 -1.394531 9.546875 -0.84375 8.640625 -0.4375 C 7.734375 -0.0390625 6.765625 0.15625 5.734375 0.15625 Z M 3.1875 -13.59375 C 2.820312 -13.695312 2.550781 -13.679688 2.375 -13.546875 C 2.195312 -13.410156 2.09375 -13.234375 2.0625 -13.015625 C 2.039062 -12.796875 2.066406 -12.59375 2.140625 -12.40625 C 2.242188 -12.132812 2.421875 -11.910156 2.671875 -11.734375 C 2.929688 -11.566406 3.210938 -11.398438 3.515625 -11.234375 C 3.816406 -11.066406 4.101562 -10.867188 4.375 -10.640625 C 4.65625 -10.421875 4.890625 -10.128906 5.078125 -9.765625 C 5.265625 -9.410156 5.359375 -8.945312 5.359375 -8.375 L 5.359375 -3.5 C 6.140625 -2.644531 6.898438 -2.023438 7.640625 -1.640625 C 8.390625 -1.253906 8.992188 -1.203125 9.453125 -1.484375 C 9.878906 -1.742188 10.097656 -2.253906 10.109375 -3.015625 C 10.128906 -3.773438 9.960938 -4.675781 9.609375 -5.71875 C 9.253906 -6.757812 8.726562 -7.828125 8.03125 -8.921875 C 7.519531 -9.742188 6.96875 -10.488281 6.375 -11.15625 C 5.78125 -11.820312 5.207031 -12.363281 4.65625 -12.78125 C 4.101562 -13.207031 3.613281 -13.476562 3.1875 -13.59375 Z M 3.1875 -13.59375 "/></g></g></g><g fill="#d3175b" fill-opacity="1"><g transform="translate(15.241487, 20.015585)"><g><path d="M 8.0625 -12.140625 C 9.332031 -12.140625 10.390625 -11.875 11.234375 -11.34375 C 12.085938 -10.820312 12.691406 -10.109375 13.046875 -9.203125 C 13.410156 -8.304688 13.5 -7.285156 13.3125 -6.140625 C 13.15625 -5.242188 13.082031 -4.484375 13.09375 -3.859375 C 13.113281 -3.242188 13.335938 -2.75 13.765625 -2.375 C 14.066406 -2.125 14.390625 -2.03125 14.734375 -2.09375 C 15.078125 -2.15625 15.425781 -2.363281 15.78125 -2.71875 L 16.125 -2.375 C 15.8125 -1.957031 15.410156 -1.570312 14.921875 -1.21875 C 14.429688 -0.863281 13.898438 -0.566406 13.328125 -0.328125 C 12.765625 -0.0976562 12.191406 0.0351562 11.609375 0.078125 C 11.023438 0.117188 10.476562 0.03125 9.96875 -0.1875 C 9.457031 -0.414062 9.035156 -0.800781 8.703125 -1.34375 C 8.640625 -0.9375 8.425781 -0.59375 8.0625 -0.3125 C 7.707031 -0.0390625 7.066406 0.09375 6.140625 0.09375 C 4.171875 0.09375 2.722656 -0.207031 1.796875 -0.8125 C 0.867188 -1.425781 0.40625 -2.300781 0.40625 -3.4375 C 0.40625 -5.78125 2.453125 -6.953125 6.546875 -6.953125 C 6.890625 -6.953125 7.21875 -6.941406 7.53125 -6.921875 C 7.851562 -6.910156 8.15625 -6.890625 8.4375 -6.859375 C 8.613281 -8.203125 8.660156 -9.222656 8.578125 -9.921875 C 8.492188 -10.628906 8.304688 -11.09375 8.015625 -11.3125 C 7.734375 -11.53125 7.359375 -11.578125 6.890625 -11.453125 C 6.585938 -11.359375 6.367188 -11.15625 6.234375 -10.84375 C 6.109375 -10.539062 6 -10.179688 5.90625 -9.765625 C 5.820312 -9.347656 5.703125 -8.941406 5.546875 -8.546875 C 5.398438 -8.148438 5.175781 -7.816406 4.875 -7.546875 C 4.570312 -7.285156 4.132812 -7.15625 3.5625 -7.15625 C 2.925781 -7.15625 2.410156 -7.300781 2.015625 -7.59375 C 1.617188 -7.882812 1.34375 -8.378906 1.1875 -9.078125 C 1.039062 -9.785156 1.035156 -10.753906 1.171875 -11.984375 L 1.75 -11.984375 C 1.75 -11.566406 1.816406 -11.21875 1.953125 -10.9375 C 2.097656 -10.664062 2.351562 -10.53125 2.71875 -10.53125 C 3.070312 -10.53125 3.429688 -10.613281 3.796875 -10.78125 C 4.160156 -10.945312 4.546875 -11.128906 4.953125 -11.328125 C 5.367188 -11.535156 5.832031 -11.722656 6.34375 -11.890625 C 6.851562 -12.054688 7.425781 -12.140625 8.0625 -12.140625 Z M 8.125 -3.875 C 8.132812 -4.257812 8.160156 -4.648438 8.203125 -5.046875 C 8.253906 -5.441406 8.3125 -5.847656 8.375 -6.265625 L 8.375 -6.359375 C 7.789062 -6.429688 7.242188 -6.457031 6.734375 -6.4375 C 6.234375 -6.425781 5.828125 -6.335938 5.515625 -6.171875 C 5.085938 -5.972656 4.84375 -5.582031 4.78125 -5 C 4.71875 -4.425781 4.84375 -3.753906 5.15625 -2.984375 C 5.550781 -1.984375 5.976562 -1.304688 6.4375 -0.953125 C 6.894531 -0.609375 7.335938 -0.539062 7.765625 -0.75 C 7.941406 -0.84375 8.050781 -1.050781 8.09375 -1.375 C 8.144531 -1.695312 8.160156 -2.082031 8.140625 -2.53125 C 8.128906 -2.976562 8.125 -3.425781 8.125 -3.875 Z M 8.125 -3.875 "/></g></g></g><g fill="#d3175b" fill-opacity="1"><g transform="translate(29.033216, 20.015585)"><g><path d="M 0.515625 0 L 0.515625 -10.40625 C 0.691406 -10.164062 0.96875 -9.957031 1.34375 -9.78125 C 1.71875 -9.601562 2.222656 -9.460938 2.859375 -9.359375 C 3.253906 -9.304688 3.644531 -9.242188 4.03125 -9.171875 C 4.414062 -9.109375 4.734375 -8.960938 4.984375 -8.734375 C 5.234375 -8.515625 5.359375 -8.140625 5.359375 -7.609375 L 5.359375 0 Z M 5.78125 -12.53125 C 5.78125 -11.757812 5.519531 -11.125 5 -10.625 C 4.488281 -10.132812 3.800781 -9.890625 2.9375 -9.890625 C 2.082031 -9.890625 1.394531 -10.132812 0.875 -10.625 C 0.363281 -11.125 0.109375 -11.757812 0.109375 -12.53125 C 0.109375 -13.3125 0.363281 -13.945312 0.875 -14.4375 C 1.394531 -14.9375 2.082031 -15.1875 2.9375 -15.1875 C 3.800781 -15.1875 4.488281 -14.9375 5 -14.4375 C 5.519531 -13.945312 5.78125 -13.3125 5.78125 -12.53125 Z M 5.78125 -12.53125 "/></g></g></g><g fill="#d3175b" fill-opacity="1"><g transform="translate(34.899683, 20.015585)"><g><path d="M 0.4375 -15.015625 L 1 -15.015625 C 1 -14.492188 1.097656 -14.109375 1.296875 -13.859375 C 1.503906 -13.617188 1.769531 -13.453125 2.09375 -13.359375 C 2.425781 -13.265625 2.773438 -13.191406 3.140625 -13.140625 C 3.515625 -13.097656 3.863281 -13.035156 4.1875 -12.953125 C 4.507812 -12.878906 4.773438 -12.726562 4.984375 -12.5 C 5.191406 -12.28125 5.296875 -11.929688 5.296875 -11.453125 L 5.296875 0 L 0.4375 0 Z M 0.4375 -15.015625 "/></g></g></g><g fill="#d3175b" fill-opacity="1"><g transform="translate(40.63332, 20.015585)"><g><path d="M 6.671875 -0.671875 C 7.296875 -0.710938 7.78125 -0.96875 8.125 -1.4375 C 8.46875 -1.90625 8.679688 -2.515625 8.765625 -3.265625 C 8.859375 -4.023438 8.84375 -4.835938 8.71875 -5.703125 C 8.59375 -6.578125 8.375 -7.4375 8.0625 -8.28125 C 7.75 -9.125 7.363281 -9.875 6.90625 -10.53125 C 6.445312 -11.1875 5.929688 -11.671875 5.359375 -11.984375 L 11.78125 -11.984375 C 12.070312 -11.492188 12.234375 -10.882812 12.265625 -10.15625 C 12.304688 -9.425781 12.269531 -8.644531 12.15625 -7.8125 C 12.039062 -6.988281 11.894531 -6.191406 11.71875 -5.421875 C 11.539062 -4.648438 11.367188 -4 11.203125 -3.46875 C 10.878906 -2.351562 10.476562 -1.226562 10 -0.09375 C 9.53125 1.03125 8.992188 2.050781 8.390625 2.96875 C 7.785156 3.894531 7.117188 4.640625 6.390625 5.203125 C 5.671875 5.765625 4.898438 6.046875 4.078125 6.046875 C 3.523438 6.046875 3.066406 5.957031 2.703125 5.78125 C 2.347656 5.601562 2.046875 5.398438 1.796875 5.171875 C 1.546875 4.941406 1.304688 4.738281 1.078125 4.5625 C 0.859375 4.382812 0.609375 4.296875 0.328125 4.296875 C -0.171875 4.296875 -0.488281 4.4375 -0.625 4.71875 C -0.769531 5 -0.84375 5.382812 -0.84375 5.875 L -1.328125 5.875 C -1.421875 5.257812 -1.425781 4.632812 -1.34375 4 C -1.269531 3.375 -1.109375 2.785156 -0.859375 2.234375 C -0.609375 1.691406 -0.25 1.25 0.21875 0.90625 C 0.695312 0.570312 1.296875 0.40625 2.015625 0.40625 C 2.578125 0.40625 3.046875 0.492188 3.421875 0.671875 C 3.796875 0.847656 4.113281 1.066406 4.375 1.328125 C 4.644531 1.597656 4.882812 1.863281 5.09375 2.125 C 5.300781 2.394531 5.515625 2.617188 5.734375 2.796875 C 5.953125 2.972656 6.21875 3.0625 6.53125 3.0625 C 7.34375 3.0625 7.960938 2.648438 8.390625 1.828125 C 8.816406 1.003906 9.0625 -0.0507812 9.125 -1.34375 C 8.664062 -0.90625 8.148438 -0.554688 7.578125 -0.296875 C 7.015625 -0.0351562 6.40625 0.09375 5.75 0.09375 C 4.46875 0.09375 3.398438 -0.164062 2.546875 -0.6875 C 1.703125 -1.21875 1.109375 -1.9375 0.765625 -2.84375 C 0.421875 -3.75 0.335938 -4.78125 0.515625 -5.9375 C 0.640625 -6.820312 0.695312 -7.578125 0.6875 -8.203125 C 0.6875 -8.828125 0.472656 -9.328125 0.046875 -9.703125 C -0.253906 -9.953125 -0.582031 -10.039062 -0.9375 -9.96875 C -1.289062 -9.894531 -1.632812 -9.6875 -1.96875 -9.34375 L -2.328125 -9.703125 C -1.941406 -10.179688 -1.441406 -10.628906 -0.828125 -11.046875 C -0.210938 -11.460938 0.441406 -11.769531 1.140625 -11.96875 C 1.835938 -12.164062 2.519531 -12.203125 3.1875 -12.078125 C 3.851562 -11.953125 4.421875 -11.59375 4.890625 -11 C 5.242188 -10.5625 5.472656 -10.0625 5.578125 -9.5 C 5.679688 -8.9375 5.710938 -8.34375 5.671875 -7.71875 C 5.628906 -7.09375 5.554688 -6.453125 5.453125 -5.796875 C 5.273438 -4.660156 5.1875 -3.742188 5.1875 -3.046875 C 5.195312 -2.359375 5.269531 -1.835938 5.40625 -1.484375 C 5.539062 -1.140625 5.71875 -0.910156 5.9375 -0.796875 C 6.15625 -0.691406 6.398438 -0.648438 6.671875 -0.671875 Z M 6.671875 -0.671875 "/></g></g></g><g fill="#d3175b" fill-opacity="1"><g transform="translate(53.340306, 20.015585)"><g/></g></g><g fill="#d3175b" fill-opacity="1"><g transform="translate(59.184633, 20.015585)"><g><path d="M 7.90625 -15.140625 C 8.945312 -15.140625 9.914062 -14.941406 10.8125 -14.546875 C 11.71875 -14.160156 12.519531 -13.617188 13.21875 -12.921875 C 13.914062 -12.222656 14.453125 -11.410156 14.828125 -10.484375 C 15.210938 -9.554688 15.40625 -8.5625 15.40625 -7.5 C 15.40625 -6.4375 15.210938 -5.441406 14.828125 -4.515625 C 14.453125 -3.597656 13.914062 -2.789062 13.21875 -2.09375 C 12.519531 -1.394531 11.71875 -0.84375 10.8125 -0.4375 C 9.914062 -0.0390625 8.945312 0.15625 7.90625 0.15625 C 6.875 0.15625 5.898438 -0.0390625 4.984375 -0.4375 C 4.078125 -0.84375 3.28125 -1.394531 2.59375 -2.09375 C 1.914062 -2.789062 1.378906 -3.597656 0.984375 -4.515625 C 0.597656 -5.441406 0.40625 -6.4375 0.40625 -7.5 C 0.40625 -8.5625 0.597656 -9.554688 0.984375 -10.484375 C 1.378906 -11.410156 1.914062 -12.222656 2.59375 -12.921875 C 3.28125 -13.617188 4.078125 -14.160156 4.984375 -14.546875 C 5.898438 -14.941406 6.875 -15.140625 7.90625 -15.140625 Z M 11.640625 -1.484375 C 12.066406 -1.742188 12.285156 -2.253906 12.296875 -3.015625 C 12.304688 -3.773438 12.132812 -4.675781 11.78125 -5.71875 C 11.425781 -6.757812 10.898438 -7.828125 10.203125 -8.921875 C 9.523438 -10.023438 8.796875 -10.96875 8.015625 -11.75 C 7.242188 -12.539062 6.515625 -13.097656 5.828125 -13.421875 C 5.140625 -13.742188 4.582031 -13.769531 4.15625 -13.5 C 3.75 -13.238281 3.535156 -12.726562 3.515625 -11.96875 C 3.503906 -11.21875 3.675781 -10.320312 4.03125 -9.28125 C 4.394531 -8.25 4.921875 -7.175781 5.609375 -6.0625 C 6.296875 -4.957031 7.023438 -4.015625 7.796875 -3.234375 C 8.578125 -2.453125 9.3125 -1.898438 10 -1.578125 C 10.6875 -1.265625 11.234375 -1.234375 11.640625 -1.484375 Z M 11.640625 -1.484375 "/></g></g></g><g fill="#d3175b" fill-opacity="1"><g transform="translate(74.990877, 20.015585)"><g><path d="M 6.953125 0.15625 C 5.640625 0.15625 4.488281 -0.101562 3.5 -0.625 C 2.507812 -1.15625 1.742188 -1.878906 1.203125 -2.796875 C 0.671875 -3.722656 0.40625 -4.789062 0.40625 -6 C 0.40625 -6.894531 0.59375 -7.71875 0.96875 -8.46875 C 1.34375 -9.226562 1.828125 -9.878906 2.421875 -10.421875 C 3.023438 -10.972656 3.664062 -11.394531 4.34375 -11.6875 C 5.03125 -11.988281 5.691406 -12.140625 6.328125 -12.140625 C 6.640625 -12.140625 7.019531 -12.0625 7.46875 -11.90625 C 7.914062 -11.75 8.367188 -11.476562 8.828125 -11.09375 L 8.828125 -15.015625 L 9.390625 -15.015625 C 9.390625 -14.492188 9.488281 -14.109375 9.6875 -13.859375 C 9.894531 -13.617188 10.160156 -13.453125 10.484375 -13.359375 C 10.816406 -13.265625 11.164062 -13.191406 11.53125 -13.140625 C 11.90625 -13.097656 12.253906 -13.035156 12.578125 -12.953125 C 12.898438 -12.878906 13.164062 -12.726562 13.375 -12.5 C 13.582031 -12.28125 13.6875 -11.929688 13.6875 -11.453125 L 13.6875 0 L 13.125 0 C 13.125 -0.53125 13.046875 -0.910156 12.890625 -1.140625 C 12.742188 -1.378906 12.546875 -1.523438 12.296875 -1.578125 C 12.054688 -1.628906 11.8125 -1.65625 11.5625 -1.65625 C 11.238281 -1.65625 10.894531 -1.5625 10.53125 -1.375 C 10.175781 -1.195312 9.804688 -0.988281 9.421875 -0.75 C 9.046875 -0.519531 8.648438 -0.3125 8.234375 -0.125 C 7.816406 0.0625 7.390625 0.15625 6.953125 0.15625 Z M 8.28125 -0.75 C 8.570312 -0.914062 8.734375 -1.234375 8.765625 -1.703125 C 8.804688 -2.171875 8.828125 -2.769531 8.828125 -3.5 L 8.828125 -9.8125 C 8.222656 -10.53125 7.597656 -10.976562 6.953125 -11.15625 C 6.304688 -11.332031 5.742188 -11.273438 5.265625 -10.984375 C 4.859375 -10.710938 4.585938 -10.285156 4.453125 -9.703125 C 4.328125 -9.117188 4.304688 -8.441406 4.390625 -7.671875 C 4.484375 -6.898438 4.628906 -6.082031 4.828125 -5.21875 C 4.984375 -4.570312 5.195312 -3.945312 5.46875 -3.34375 C 5.75 -2.75 6.054688 -2.234375 6.390625 -1.796875 C 6.734375 -1.367188 7.070312 -1.050781 7.40625 -0.84375 C 7.738281 -0.644531 8.03125 -0.613281 8.28125 -0.75 Z M 8.28125 -0.75 "/></g></g></g><g fill="#d3175b" fill-opacity="1"><g transform="translate(89.18108, 20.015585)"><g><path d="M 0.515625 0 L 0.515625 -10.40625 C 0.691406 -10.164062 0.96875 -9.957031 1.34375 -9.78125 C 1.71875 -9.601562 2.222656 -9.460938 2.859375 -9.359375 C 3.253906 -9.304688 3.644531 -9.242188 4.03125 -9.171875 C 4.414062 -9.109375 4.734375 -8.960938 4.984375 -8.734375 C 5.234375 -8.515625 5.359375 -8.140625 5.359375 -7.609375 L 5.359375 0 Z M 5.78125 -12.53125 C 5.78125 -11.757812 5.519531 -11.125 5 -10.625 C 4.488281 -10.132812 3.800781 -9.890625 2.9375 -9.890625 C 2.082031 -9.890625 1.394531 -10.132812 0.875 -10.625 C 0.363281 -11.125 0.109375 -11.757812 0.109375 -12.53125 C 0.109375 -13.3125 0.363281 -13.945312 0.875 -14.4375 C 1.394531 -14.9375 2.082031 -15.1875 2.9375 -15.1875 C 3.800781 -15.1875 4.488281 -14.9375 5 -14.4375 C 5.519531 -13.945312 5.78125 -13.3125 5.78125 -12.53125 Z M 5.78125 -12.53125 "/></g></g></g><g clip-path="url(#52e2a6f5aa)"><g fill="#d3175b" fill-opacity="1"><g transform="translate(95.047548, 20.015585)"><g><path d="M 0.515625 -11.984375 L 1.0625 -11.984375 C 1.0625 -11.390625 1.171875 -10.957031 1.390625 -10.6875 C 1.617188 -10.425781 1.910156 -10.28125 2.265625 -10.25 C 2.628906 -10.21875 3.023438 -10.253906 3.453125 -10.359375 C 3.898438 -10.460938 4.335938 -10.65625 4.765625 -10.9375 C 5.191406 -11.226562 5.640625 -11.5 6.109375 -11.75 C 6.578125 -12.007812 7.09375 -12.140625 7.65625 -12.140625 C 8.945312 -12.140625 10.007812 -11.875 10.84375 -11.34375 C 11.6875 -10.820312 12.289062 -10.109375 12.65625 -9.203125 C 13.019531 -8.304688 13.101562 -7.285156 12.90625 -6.140625 C 12.769531 -5.242188 12.707031 -4.484375 12.71875 -3.859375 C 12.726562 -3.242188 12.945312 -2.75 13.375 -2.375 C 13.664062 -2.125 13.984375 -2.03125 14.328125 -2.09375 C 14.679688 -2.15625 15.035156 -2.363281 15.390625 -2.71875 L 15.71875 -2.375 C 15.351562 -1.882812 14.863281 -1.429688 14.25 -1.015625 C 13.632812 -0.609375 12.972656 -0.300781 12.265625 -0.09375 C 11.566406 0.101562 10.882812 0.140625 10.21875 0.015625 C 9.5625 -0.109375 9 -0.46875 8.53125 -1.0625 C 8.175781 -1.519531 7.945312 -2.023438 7.84375 -2.578125 C 7.738281 -3.128906 7.710938 -3.71875 7.765625 -4.34375 C 7.816406 -4.976562 7.882812 -5.617188 7.96875 -6.265625 C 8.144531 -7.398438 8.210938 -8.304688 8.171875 -8.984375 C 8.140625 -9.660156 8.023438 -10.164062 7.828125 -10.5 C 7.640625 -10.832031 7.398438 -11.03125 7.109375 -11.09375 C 6.828125 -11.15625 6.523438 -11.132812 6.203125 -11.03125 C 5.878906 -10.925781 5.660156 -10.71875 5.546875 -10.40625 C 5.429688 -10.09375 5.367188 -9.71875 5.359375 -9.28125 L 5.359375 0 L 0.515625 0 Z M 0.515625 -11.984375 "/></g></g></g></g></svg>