<svg xmlns="http://www.w3.org/2000/svg" xmlns:xlink="http://www.w3.org/1999/xlink" width="50" zoomAndPan="magnify" viewBox="0 0 37.5 37.499999" height="50" preserveAspectRatio="xMidYMid meet" version="1.0"><defs><g/><clipPath id="67e37188a8"><path d="M 4 3 L 33 3 L 33 37.007812 L 4 37.007812 Z M 4 3 " clip-rule="nonzero"/></clipPath></defs><g clip-path="url(#67e37188a8)"><g fill="#d3175b" fill-opacity="1"><g transform="translate(3.438337, 36.767059)"><g><path d="M 12.6875 0.34375 C 12.164062 0.34375 11.601562 0.304688 11 0.234375 C 10.394531 0.171875 9.832031 0.09375 9.3125 0 L 1.125 0 L 1.125 -22.9375 C 1.125 -25.050781 1.488281 -26.796875 2.21875 -28.171875 C 2.957031 -29.546875 3.90625 -30.625 5.0625 -31.40625 C 6.226562 -32.1875 7.488281 -32.738281 8.84375 -33.0625 C 10.195312 -33.394531 11.476562 -33.5625 12.6875 -33.5625 C 14.976562 -33.5625 17.125 -33.117188 19.125 -32.234375 C 21.132812 -31.359375 22.898438 -30.144531 24.421875 -28.59375 C 25.941406 -27.039062 27.132812 -25.242188 28 -23.203125 C 28.863281 -21.160156 29.296875 -18.960938 29.296875 -16.609375 C 29.296875 -14.253906 28.863281 -12.054688 28 -10.015625 C 27.132812 -7.972656 25.941406 -6.175781 24.421875 -4.625 C 22.898438 -3.070312 21.132812 -1.851562 19.125 -0.96875 C 17.125 -0.09375 14.976562 0.34375 12.6875 0.34375 Z M 7.0625 -30.09375 C 6.238281 -30.3125 5.628906 -30.273438 5.234375 -29.984375 C 4.847656 -29.691406 4.628906 -29.300781 4.578125 -28.8125 C 4.535156 -28.320312 4.59375 -27.863281 4.75 -27.4375 C 4.976562 -26.851562 5.367188 -26.375 5.921875 -26 C 6.484375 -25.625 7.097656 -25.242188 7.765625 -24.859375 C 8.429688 -24.484375 9.078125 -24.050781 9.703125 -23.5625 C 10.328125 -23.070312 10.84375 -22.425781 11.25 -21.625 C 11.65625 -20.832031 11.859375 -19.796875 11.859375 -18.515625 L 11.859375 -7.734375 C 13.585938 -5.847656 15.273438 -4.476562 16.921875 -3.625 C 18.578125 -2.78125 19.910156 -2.664062 20.921875 -3.28125 C 21.867188 -3.875 22.359375 -5.007812 22.390625 -6.6875 C 22.421875 -8.375 22.046875 -10.367188 21.265625 -12.671875 C 20.484375 -14.972656 19.320312 -17.332031 17.78125 -19.75 C 16.644531 -21.570312 15.421875 -23.21875 14.109375 -24.6875 C 12.804688 -26.164062 11.539062 -27.367188 10.3125 -28.296875 C 9.09375 -29.222656 8.007812 -29.820312 7.0625 -30.09375 Z M 7.0625 -30.09375 "/></g></g></g></g></svg>