<svg xmlns="http://www.w3.org/2000/svg" xmlns:xlink="http://www.w3.org/1999/xlink" width="200" zoomAndPan="magnify" viewBox="0 0 150 30.000001" height="40" preserveAspectRatio="xMidYMid meet" version="1.0"><defs><g/><clipPath id="7943a487f0"><path d="M 71.535156 21 L 139 21 L 139 24 L 71.535156 24 Z M 11 21 L 53.617188 21 L 53.617188 24 L 11 24 Z M 11 21 " clip-rule="nonzero"/></clipPath></defs><g clip-path="url(#7943a487f0)"><path fill="#d3175b" d="M 11.042969 21.28125 L 138.980469 21.28125 L 138.980469 23.363281 L 11.042969 23.363281 Z M 11.042969 21.28125 " fill-opacity="1" fill-rule="nonzero"/></g><g fill="#d3175b" fill-opacity="1"><g transform="translate(11.043456, 19.89527)"><g><path d="M 6.875 0.1875 C 6.582031 0.1875 6.273438 0.164062 5.953125 0.125 C 5.628906 0.09375 5.320312 0.0507812 5.03125 0 L 0.609375 0 L 0.609375 -12.40625 C 0.609375 -13.5625 0.804688 -14.507812 1.203125 -15.25 C 1.597656 -15.988281 2.109375 -16.570312 2.734375 -17 C 3.367188 -17.425781 4.050781 -17.722656 4.78125 -17.890625 C 5.519531 -18.066406 6.21875 -18.15625 6.875 -18.15625 C 8.101562 -18.15625 9.257812 -17.914062 10.34375 -17.4375 C 11.4375 -16.96875 12.394531 -16.3125 13.21875 -15.46875 C 14.039062 -14.632812 14.6875 -13.660156 15.15625 -12.546875 C 15.625 -11.441406 15.859375 -10.253906 15.859375 -8.984375 C 15.859375 -7.710938 15.625 -6.523438 15.15625 -5.421875 C 14.6875 -4.316406 14.039062 -3.34375 13.21875 -2.5 C 12.394531 -1.664062 11.4375 -1.007812 10.34375 -0.53125 C 9.257812 -0.0507812 8.101562 0.1875 6.875 0.1875 Z M 3.8125 -16.28125 C 3.375 -16.40625 3.046875 -16.382812 2.828125 -16.21875 C 2.617188 -16.0625 2.5 -15.847656 2.46875 -15.578125 C 2.445312 -15.316406 2.484375 -15.070312 2.578125 -14.84375 C 2.691406 -14.53125 2.898438 -14.269531 3.203125 -14.0625 C 3.503906 -13.863281 3.835938 -13.660156 4.203125 -13.453125 C 4.566406 -13.253906 4.914062 -13.019531 5.25 -12.75 C 5.582031 -12.488281 5.859375 -12.140625 6.078125 -11.703125 C 6.304688 -11.273438 6.421875 -10.710938 6.421875 -10.015625 L 6.421875 -4.1875 C 7.359375 -3.164062 8.269531 -2.421875 9.15625 -1.953125 C 10.050781 -1.492188 10.773438 -1.4375 11.328125 -1.78125 C 11.835938 -2.09375 12.097656 -2.703125 12.109375 -3.609375 C 12.128906 -4.523438 11.925781 -5.601562 11.5 -6.84375 C 11.082031 -8.09375 10.457031 -9.375 9.625 -10.6875 C 9.007812 -11.675781 8.347656 -12.566406 7.640625 -13.359375 C 6.929688 -14.160156 6.242188 -14.8125 5.578125 -15.3125 C 4.921875 -15.8125 4.332031 -16.132812 3.8125 -16.28125 Z M 3.8125 -16.28125 "/></g></g></g><g fill="#d3175b" fill-opacity="1"><g transform="translate(27.346063, 19.89527)"><g><path d="M 9.65625 -14.53125 C 11.175781 -14.53125 12.441406 -14.210938 13.453125 -13.578125 C 14.472656 -12.953125 15.195312 -12.097656 15.625 -11.015625 C 16.0625 -9.941406 16.164062 -8.71875 15.9375 -7.34375 C 15.757812 -6.28125 15.675781 -5.378906 15.6875 -4.640625 C 15.707031 -3.898438 15.976562 -3.300781 16.5 -2.84375 C 16.84375 -2.539062 17.222656 -2.425781 17.640625 -2.5 C 18.054688 -2.582031 18.476562 -2.835938 18.90625 -3.265625 L 19.296875 -2.84375 C 18.929688 -2.34375 18.457031 -1.878906 17.875 -1.453125 C 17.289062 -1.035156 16.65625 -0.679688 15.96875 -0.390625 C 15.289062 -0.109375 14.601562 0.0507812 13.90625 0.09375 C 13.207031 0.132812 12.550781 0.0234375 11.9375 -0.234375 C 11.332031 -0.503906 10.828125 -0.96875 10.421875 -1.625 C 10.347656 -1.125 10.09375 -0.707031 9.65625 -0.375 C 9.226562 -0.0507812 8.457031 0.109375 7.34375 0.109375 C 4.988281 0.109375 3.253906 -0.25 2.140625 -0.96875 C 1.035156 -1.695312 0.484375 -2.742188 0.484375 -4.109375 C 0.484375 -6.921875 2.9375 -8.328125 7.84375 -8.328125 C 8.25 -8.328125 8.640625 -8.316406 9.015625 -8.296875 C 9.398438 -8.273438 9.765625 -8.25 10.109375 -8.21875 C 10.316406 -9.820312 10.367188 -11.046875 10.265625 -11.890625 C 10.171875 -12.734375 9.953125 -13.285156 9.609375 -13.546875 C 9.265625 -13.816406 8.8125 -13.867188 8.25 -13.703125 C 7.894531 -13.597656 7.632812 -13.359375 7.46875 -12.984375 C 7.3125 -12.617188 7.179688 -12.1875 7.078125 -11.6875 C 6.972656 -11.195312 6.832031 -10.710938 6.65625 -10.234375 C 6.476562 -9.753906 6.207031 -9.351562 5.84375 -9.03125 C 5.476562 -8.71875 4.953125 -8.5625 4.265625 -8.5625 C 3.503906 -8.5625 2.882812 -8.738281 2.40625 -9.09375 C 1.9375 -9.445312 1.613281 -10.039062 1.4375 -10.875 C 1.257812 -11.71875 1.25 -12.875 1.40625 -14.34375 L 2.09375 -14.34375 C 2.09375 -13.851562 2.175781 -13.441406 2.34375 -13.109375 C 2.507812 -12.785156 2.816406 -12.625 3.265625 -12.625 C 3.679688 -12.625 4.109375 -12.71875 4.546875 -12.90625 C 4.984375 -13.101562 5.445312 -13.328125 5.9375 -13.578125 C 6.4375 -13.828125 6.988281 -14.046875 7.59375 -14.234375 C 8.207031 -14.429688 8.894531 -14.53125 9.65625 -14.53125 Z M 9.734375 -4.640625 C 9.742188 -5.097656 9.773438 -5.566406 9.828125 -6.046875 C 9.890625 -6.523438 9.953125 -7.007812 10.015625 -7.5 L 10.015625 -7.609375 C 9.328125 -7.703125 8.675781 -7.738281 8.0625 -7.71875 C 7.457031 -7.695312 6.972656 -7.585938 6.609375 -7.390625 C 6.085938 -7.148438 5.789062 -6.679688 5.71875 -5.984375 C 5.65625 -5.296875 5.804688 -4.492188 6.171875 -3.578125 C 6.648438 -2.378906 7.160156 -1.570312 7.703125 -1.15625 C 8.253906 -0.738281 8.789062 -0.65625 9.3125 -0.90625 C 9.519531 -1.007812 9.648438 -1.253906 9.703125 -1.640625 C 9.753906 -2.035156 9.769531 -2.5 9.75 -3.03125 C 9.738281 -3.570312 9.734375 -4.109375 9.734375 -4.640625 Z M 9.734375 -4.640625 "/></g></g></g><g fill="#d3175b" fill-opacity="1"><g transform="translate(43.860738, 19.89527)"><g><path d="M 0.609375 0 L 0.609375 -12.46875 C 0.816406 -12.175781 1.144531 -11.925781 1.59375 -11.71875 C 2.050781 -11.507812 2.660156 -11.34375 3.421875 -11.21875 C 3.898438 -11.144531 4.367188 -11.066406 4.828125 -10.984375 C 5.285156 -10.910156 5.664062 -10.738281 5.96875 -10.46875 C 6.269531 -10.207031 6.421875 -9.757812 6.421875 -9.125 L 6.421875 0 Z M 6.921875 -15.015625 C 6.921875 -14.085938 6.609375 -13.328125 5.984375 -12.734375 C 5.367188 -12.148438 4.550781 -11.859375 3.53125 -11.859375 C 2.5 -11.859375 1.671875 -12.148438 1.046875 -12.734375 C 0.429688 -13.328125 0.125 -14.085938 0.125 -15.015625 C 0.125 -15.941406 0.429688 -16.703125 1.046875 -17.296875 C 1.671875 -17.890625 2.5 -18.1875 3.53125 -18.1875 C 4.550781 -18.1875 5.367188 -17.890625 5.984375 -17.296875 C 6.609375 -16.703125 6.921875 -15.941406 6.921875 -15.015625 Z M 6.921875 -15.015625 "/></g></g></g><g fill="#d3175b" fill-opacity="1"><g transform="translate(50.885441, 19.89527)"><g><path d="M 0.53125 -17.984375 L 1.1875 -17.984375 C 1.1875 -17.359375 1.3125 -16.898438 1.5625 -16.609375 C 1.8125 -16.316406 2.128906 -16.113281 2.515625 -16 C 2.910156 -15.882812 3.328125 -15.800781 3.765625 -15.75 C 4.203125 -15.695312 4.613281 -15.617188 5 -15.515625 C 5.394531 -15.421875 5.71875 -15.238281 5.96875 -14.96875 C 6.21875 -14.707031 6.34375 -14.285156 6.34375 -13.703125 L 6.34375 0 L 0.53125 0 Z M 0.53125 -17.984375 "/></g></g></g><g fill="#d3175b" fill-opacity="1"><g transform="translate(57.751088, 19.89527)"><g><path d="M 7.984375 -0.796875 C 8.742188 -0.847656 9.328125 -1.15625 9.734375 -1.71875 C 10.140625 -2.289062 10.394531 -3.023438 10.5 -3.921875 C 10.601562 -4.828125 10.578125 -5.800781 10.421875 -6.84375 C 10.273438 -7.882812 10.015625 -8.90625 9.640625 -9.90625 C 9.273438 -10.914062 8.816406 -11.8125 8.265625 -12.59375 C 7.722656 -13.382812 7.109375 -13.96875 6.421875 -14.34375 L 14.109375 -14.34375 C 14.460938 -13.757812 14.660156 -13.03125 14.703125 -12.15625 C 14.742188 -11.28125 14.691406 -10.347656 14.546875 -9.359375 C 14.410156 -8.367188 14.234375 -7.414062 14.015625 -6.5 C 13.804688 -5.582031 13.609375 -4.800781 13.421875 -4.15625 C 13.023438 -2.8125 12.546875 -1.460938 11.984375 -0.109375 C 11.421875 1.234375 10.773438 2.457031 10.046875 3.5625 C 9.328125 4.664062 8.53125 5.550781 7.65625 6.21875 C 6.789062 6.894531 5.863281 7.234375 4.875 7.234375 C 4.21875 7.234375 3.671875 7.128906 3.234375 6.921875 C 2.804688 6.710938 2.441406 6.46875 2.140625 6.1875 C 1.847656 5.914062 1.566406 5.671875 1.296875 5.453125 C 1.035156 5.242188 0.734375 5.140625 0.390625 5.140625 C -0.203125 5.140625 -0.582031 5.304688 -0.75 5.640625 C -0.914062 5.984375 -1 6.445312 -1 7.03125 L -1.59375 7.03125 C -1.695312 6.300781 -1.703125 5.554688 -1.609375 4.796875 C -1.523438 4.035156 -1.332031 3.328125 -1.03125 2.671875 C -0.726562 2.023438 -0.296875 1.5 0.265625 1.09375 C 0.828125 0.6875 1.539062 0.484375 2.40625 0.484375 C 3.082031 0.484375 3.644531 0.585938 4.09375 0.796875 C 4.539062 1.003906 4.925781 1.265625 5.25 1.578125 C 5.570312 1.898438 5.851562 2.21875 6.09375 2.53125 C 6.34375 2.851562 6.597656 3.117188 6.859375 3.328125 C 7.128906 3.546875 7.453125 3.65625 7.828125 3.65625 C 8.796875 3.65625 9.535156 3.164062 10.046875 2.1875 C 10.554688 1.207031 10.847656 -0.0625 10.921875 -1.625 C 10.378906 -1.09375 9.765625 -0.671875 9.078125 -0.359375 C 8.398438 -0.046875 7.671875 0.109375 6.890625 0.109375 C 5.359375 0.109375 4.082031 -0.203125 3.0625 -0.828125 C 2.039062 -1.460938 1.320312 -2.320312 0.90625 -3.40625 C 0.5 -4.488281 0.398438 -5.722656 0.609375 -7.109375 C 0.765625 -8.171875 0.835938 -9.078125 0.828125 -9.828125 C 0.828125 -10.578125 0.566406 -11.171875 0.046875 -11.609375 C -0.304688 -11.910156 -0.691406 -12.015625 -1.109375 -11.921875 C -1.535156 -11.835938 -1.953125 -11.59375 -2.359375 -11.1875 L -2.78125 -11.609375 C -2.320312 -12.191406 -1.722656 -12.726562 -0.984375 -13.21875 C -0.253906 -13.71875 0.523438 -14.085938 1.359375 -14.328125 C 2.203125 -14.566406 3.019531 -14.609375 3.8125 -14.453125 C 4.613281 -14.304688 5.296875 -13.878906 5.859375 -13.171875 C 6.285156 -12.648438 6.5625 -12.050781 6.6875 -11.375 C 6.8125 -10.707031 6.84375 -9.992188 6.78125 -9.234375 C 6.726562 -8.484375 6.640625 -7.722656 6.515625 -6.953125 C 6.304688 -5.585938 6.207031 -4.488281 6.21875 -3.65625 C 6.226562 -2.820312 6.3125 -2.195312 6.46875 -1.78125 C 6.625 -1.375 6.832031 -1.101562 7.09375 -0.96875 C 7.363281 -0.832031 7.660156 -0.773438 7.984375 -0.796875 Z M 7.984375 -0.796875 "/></g></g></g><g fill="#d3175b" fill-opacity="1"><g transform="translate(72.966856, 19.89527)"><g/></g></g><g fill="#d3175b" fill-opacity="1"><g transform="translate(79.965048, 19.89527)"><g><path d="M 9.46875 -18.140625 C 10.71875 -18.140625 11.878906 -17.90625 12.953125 -17.4375 C 14.035156 -16.96875 14.992188 -16.3125 15.828125 -15.46875 C 16.660156 -14.632812 17.304688 -13.660156 17.765625 -12.546875 C 18.222656 -11.441406 18.453125 -10.253906 18.453125 -8.984375 C 18.453125 -7.710938 18.222656 -6.523438 17.765625 -5.421875 C 17.304688 -4.316406 16.660156 -3.34375 15.828125 -2.5 C 14.992188 -1.664062 14.035156 -1.007812 12.953125 -0.53125 C 11.878906 -0.0507812 10.71875 0.1875 9.46875 0.1875 C 8.226562 0.1875 7.0625 -0.0507812 5.96875 -0.53125 C 4.882812 -1.007812 3.929688 -1.664062 3.109375 -2.5 C 2.285156 -3.34375 1.640625 -4.316406 1.171875 -5.421875 C 0.710938 -6.523438 0.484375 -7.710938 0.484375 -8.984375 C 0.484375 -10.253906 0.710938 -11.441406 1.171875 -12.546875 C 1.640625 -13.660156 2.285156 -14.632812 3.109375 -15.46875 C 3.929688 -16.3125 4.882812 -16.96875 5.96875 -17.4375 C 7.0625 -17.90625 8.226562 -18.140625 9.46875 -18.140625 Z M 13.953125 -1.78125 C 14.460938 -2.09375 14.722656 -2.703125 14.734375 -3.609375 C 14.742188 -4.523438 14.535156 -5.601562 14.109375 -6.84375 C 13.679688 -8.09375 13.050781 -9.375 12.21875 -10.6875 C 11.40625 -12.007812 10.535156 -13.140625 9.609375 -14.078125 C 8.679688 -15.015625 7.804688 -15.675781 6.984375 -16.0625 C 6.160156 -16.457031 5.492188 -16.492188 4.984375 -16.171875 C 4.492188 -15.859375 4.238281 -15.25 4.21875 -14.34375 C 4.195312 -13.445312 4.398438 -12.375 4.828125 -11.125 C 5.265625 -9.875 5.890625 -8.585938 6.703125 -7.265625 C 7.535156 -5.941406 8.414062 -4.8125 9.34375 -3.875 C 10.269531 -2.9375 11.144531 -2.273438 11.96875 -1.890625 C 12.789062 -1.515625 13.453125 -1.476562 13.953125 -1.78125 Z M 13.953125 -1.78125 "/></g></g></g><g fill="#d3175b" fill-opacity="1"><g transform="translate(98.891969, 19.89527)"><g><path d="M 8.328125 0.1875 C 6.753906 0.1875 5.375 -0.125 4.1875 -0.75 C 3 -1.382812 2.082031 -2.253906 1.4375 -3.359375 C 0.800781 -4.460938 0.484375 -5.738281 0.484375 -7.1875 C 0.484375 -8.257812 0.707031 -9.25 1.15625 -10.15625 C 1.601562 -11.0625 2.1875 -11.835938 2.90625 -12.484375 C 3.625 -13.140625 4.390625 -13.644531 5.203125 -14 C 6.023438 -14.351562 6.816406 -14.53125 7.578125 -14.53125 C 7.953125 -14.53125 8.40625 -14.4375 8.9375 -14.25 C 9.476562 -14.0625 10.023438 -13.738281 10.578125 -13.28125 L 10.578125 -17.984375 L 11.25 -17.984375 C 11.25 -17.359375 11.367188 -16.898438 11.609375 -16.609375 C 11.859375 -16.316406 12.175781 -16.113281 12.5625 -16 C 12.957031 -15.882812 13.375 -15.800781 13.8125 -15.75 C 14.257812 -15.695312 14.675781 -15.617188 15.0625 -15.515625 C 15.445312 -15.421875 15.765625 -15.238281 16.015625 -14.96875 C 16.265625 -14.707031 16.390625 -14.285156 16.390625 -13.703125 L 16.390625 0 L 15.71875 0 C 15.71875 -0.632812 15.625 -1.09375 15.4375 -1.375 C 15.257812 -1.65625 15.023438 -1.828125 14.734375 -1.890625 C 14.441406 -1.953125 14.144531 -1.984375 13.84375 -1.984375 C 13.457031 -1.984375 13.050781 -1.875 12.625 -1.65625 C 12.195312 -1.4375 11.753906 -1.1875 11.296875 -0.90625 C 10.835938 -0.625 10.359375 -0.367188 9.859375 -0.140625 C 9.367188 0.078125 8.859375 0.1875 8.328125 0.1875 Z M 9.921875 -0.90625 C 10.273438 -1.09375 10.472656 -1.46875 10.515625 -2.03125 C 10.554688 -2.601562 10.578125 -3.320312 10.578125 -4.1875 L 10.578125 -11.75 C 9.859375 -12.613281 9.109375 -13.148438 8.328125 -13.359375 C 7.546875 -13.578125 6.875 -13.507812 6.3125 -13.15625 C 5.8125 -12.832031 5.488281 -12.320312 5.34375 -11.625 C 5.195312 -10.925781 5.175781 -10.113281 5.28125 -9.1875 C 5.382812 -8.257812 5.550781 -7.28125 5.78125 -6.25 C 5.976562 -5.476562 6.238281 -4.734375 6.5625 -4.015625 C 6.882812 -3.296875 7.25 -2.675781 7.65625 -2.15625 C 8.0625 -1.632812 8.460938 -1.253906 8.859375 -1.015625 C 9.265625 -0.773438 9.617188 -0.738281 9.921875 -0.90625 Z M 9.921875 -0.90625 "/></g></g></g><g fill="#d3175b" fill-opacity="1"><g transform="translate(115.883791, 19.89527)"><g><path d="M 0.609375 0 L 0.609375 -12.46875 C 0.816406 -12.175781 1.144531 -11.925781 1.59375 -11.71875 C 2.050781 -11.507812 2.660156 -11.34375 3.421875 -11.21875 C 3.898438 -11.144531 4.367188 -11.066406 4.828125 -10.984375 C 5.285156 -10.910156 5.664062 -10.738281 5.96875 -10.46875 C 6.269531 -10.207031 6.421875 -9.757812 6.421875 -9.125 L 6.421875 0 Z M 6.921875 -15.015625 C 6.921875 -14.085938 6.609375 -13.328125 5.984375 -12.734375 C 5.367188 -12.148438 4.550781 -11.859375 3.53125 -11.859375 C 2.5 -11.859375 1.671875 -12.148438 1.046875 -12.734375 C 0.429688 -13.328125 0.125 -14.085938 0.125 -15.015625 C 0.125 -15.941406 0.429688 -16.703125 1.046875 -17.296875 C 1.671875 -17.890625 2.5 -18.1875 3.53125 -18.1875 C 4.550781 -18.1875 5.367188 -17.890625 5.984375 -17.296875 C 6.609375 -16.703125 6.921875 -15.941406 6.921875 -15.015625 Z M 6.921875 -15.015625 "/></g></g></g><g fill="#d3175b" fill-opacity="1"><g transform="translate(122.908494, 19.89527)"><g><path d="M 0.609375 -14.34375 L 1.265625 -14.34375 C 1.265625 -13.632812 1.394531 -13.117188 1.65625 -12.796875 C 1.925781 -12.484375 2.28125 -12.304688 2.71875 -12.265625 C 3.15625 -12.234375 3.628906 -12.28125 4.140625 -12.40625 C 4.671875 -12.53125 5.191406 -12.765625 5.703125 -13.109375 C 6.210938 -13.453125 6.75 -13.773438 7.3125 -14.078125 C 7.882812 -14.378906 8.503906 -14.53125 9.171875 -14.53125 C 10.710938 -14.53125 11.984375 -14.210938 12.984375 -13.578125 C 13.992188 -12.953125 14.710938 -12.097656 15.140625 -11.015625 C 15.578125 -9.941406 15.679688 -8.71875 15.453125 -7.34375 C 15.296875 -6.28125 15.222656 -5.378906 15.234375 -4.640625 C 15.242188 -3.898438 15.503906 -3.300781 16.015625 -2.84375 C 16.367188 -2.539062 16.753906 -2.425781 17.171875 -2.5 C 17.585938 -2.582031 18.003906 -2.835938 18.421875 -3.265625 L 18.828125 -2.84375 C 18.378906 -2.257812 17.789062 -1.71875 17.0625 -1.21875 C 16.332031 -0.726562 15.546875 -0.363281 14.703125 -0.125 C 13.859375 0.113281 13.039062 0.15625 12.25 0 C 11.457031 -0.144531 10.773438 -0.566406 10.203125 -1.265625 C 9.785156 -1.816406 9.515625 -2.421875 9.390625 -3.078125 C 9.265625 -3.742188 9.234375 -4.453125 9.296875 -5.203125 C 9.359375 -5.960938 9.441406 -6.726562 9.546875 -7.5 C 9.753906 -8.863281 9.835938 -9.953125 9.796875 -10.765625 C 9.753906 -11.578125 9.617188 -12.179688 9.390625 -12.578125 C 9.160156 -12.972656 8.867188 -13.207031 8.515625 -13.28125 C 8.171875 -13.351562 7.804688 -13.328125 7.421875 -13.203125 C 7.035156 -13.078125 6.773438 -12.828125 6.640625 -12.453125 C 6.503906 -12.085938 6.429688 -11.640625 6.421875 -11.109375 L 6.421875 0 L 0.609375 0 Z M 0.609375 -14.34375 "/></g></g></g></svg>