<svg xmlns="http://www.w3.org/2000/svg" xmlns:xlink="http://www.w3.org/1999/xlink" width="50" zoomAndPan="magnify" viewBox="0 0 37.5 37.499999" height="50" preserveAspectRatio="xMidYMid meet" version="1.0"><defs><g/></defs><g fill="#d3175b" fill-opacity="1"><g transform="translate(0.119329, 27.259737)"><g><path d="M 7.171875 0.1875 C 6.867188 0.1875 6.546875 0.164062 6.203125 0.125 C 5.867188 0.09375 5.550781 0.0507812 5.25 0 L 0.640625 0 L 0.640625 -12.953125 C 0.640625 -14.148438 0.84375 -15.132812 1.25 -15.90625 C 1.664062 -16.6875 2.203125 -17.296875 2.859375 -17.734375 C 3.515625 -18.179688 4.222656 -18.492188 4.984375 -18.671875 C 5.753906 -18.859375 6.484375 -18.953125 7.171875 -18.953125 C 8.460938 -18.953125 9.671875 -18.703125 10.796875 -18.203125 C 11.929688 -17.703125 12.925781 -17.015625 13.78125 -16.140625 C 14.644531 -15.265625 15.320312 -14.25 15.8125 -13.09375 C 16.300781 -11.945312 16.546875 -10.707031 16.546875 -9.375 C 16.546875 -8.050781 16.300781 -6.8125 15.8125 -5.65625 C 15.320312 -4.5 14.644531 -3.484375 13.78125 -2.609375 C 12.925781 -1.734375 11.929688 -1.046875 10.796875 -0.546875 C 9.671875 -0.0546875 8.460938 0.1875 7.171875 0.1875 Z M 3.984375 -16.984375 C 3.523438 -17.117188 3.179688 -17.101562 2.953125 -16.9375 C 2.734375 -16.769531 2.609375 -16.546875 2.578125 -16.265625 C 2.554688 -15.992188 2.59375 -15.738281 2.6875 -15.5 C 2.8125 -15.164062 3.03125 -14.890625 3.34375 -14.671875 C 3.65625 -14.460938 4 -14.25 4.375 -14.03125 C 4.757812 -13.820312 5.125 -13.578125 5.46875 -13.296875 C 5.820312 -13.023438 6.113281 -12.664062 6.34375 -12.21875 C 6.582031 -11.769531 6.703125 -11.179688 6.703125 -10.453125 L 6.703125 -4.375 C 7.671875 -3.300781 8.617188 -2.523438 9.546875 -2.046875 C 10.484375 -1.566406 11.238281 -1.503906 11.8125 -1.859375 C 12.351562 -2.191406 12.628906 -2.832031 12.640625 -3.78125 C 12.660156 -4.726562 12.445312 -5.851562 12 -7.15625 C 11.5625 -8.457031 10.910156 -9.789062 10.046875 -11.15625 C 9.398438 -12.1875 8.707031 -13.113281 7.96875 -13.9375 C 7.226562 -14.769531 6.507812 -15.445312 5.8125 -15.96875 C 5.125 -16.5 4.515625 -16.835938 3.984375 -16.984375 Z M 3.984375 -16.984375 "/></g></g></g><g fill="#d3175b" fill-opacity="1"><g transform="translate(17.132867, 27.259737)"><g><path d="M 9.875 -18.921875 C 11.1875 -18.921875 12.40625 -18.675781 13.53125 -18.1875 C 14.65625 -17.695312 15.648438 -17.015625 16.515625 -16.140625 C 17.390625 -15.265625 18.066406 -14.25 18.546875 -13.09375 C 19.023438 -11.945312 19.265625 -10.707031 19.265625 -9.375 C 19.265625 -8.050781 19.023438 -6.8125 18.546875 -5.65625 C 18.066406 -4.5 17.390625 -3.484375 16.515625 -2.609375 C 15.648438 -1.734375 14.65625 -1.046875 13.53125 -0.546875 C 12.40625 -0.0546875 11.1875 0.1875 9.875 0.1875 C 8.582031 0.1875 7.367188 -0.0546875 6.234375 -0.546875 C 5.097656 -1.046875 4.101562 -1.734375 3.25 -2.609375 C 2.394531 -3.484375 1.722656 -4.5 1.234375 -5.65625 C 0.742188 -6.8125 0.5 -8.050781 0.5 -9.375 C 0.5 -10.707031 0.742188 -11.945312 1.234375 -13.09375 C 1.722656 -14.25 2.394531 -15.265625 3.25 -16.140625 C 4.101562 -17.015625 5.097656 -17.695312 6.234375 -18.1875 C 7.367188 -18.675781 8.582031 -18.921875 9.875 -18.921875 Z M 14.5625 -1.859375 C 15.09375 -2.191406 15.363281 -2.832031 15.375 -3.78125 C 15.382812 -4.726562 15.164062 -5.851562 14.71875 -7.15625 C 14.28125 -8.457031 13.625 -9.789062 12.75 -11.15625 C 11.90625 -12.539062 11 -13.71875 10.03125 -14.6875 C 9.0625 -15.664062 8.144531 -16.359375 7.28125 -16.765625 C 6.425781 -17.171875 5.734375 -17.207031 5.203125 -16.875 C 4.679688 -16.539062 4.410156 -15.90625 4.390625 -14.96875 C 4.378906 -14.03125 4.597656 -12.910156 5.046875 -11.609375 C 5.503906 -10.304688 6.15625 -8.960938 7 -7.578125 C 7.863281 -6.191406 8.78125 -5.007812 9.75 -4.03125 C 10.71875 -3.0625 11.628906 -2.378906 12.484375 -1.984375 C 13.347656 -1.585938 14.039062 -1.546875 14.5625 -1.859375 Z M 14.5625 -1.859375 "/></g></g></g></svg>